<?xml version="1.0" encoding="utf-8"?>
<!-- Generator: Adobe Illustrator 21.1.0, SVG Export Plug-In . SVG Version: 6.00 Build 0)  -->
<svg version="1.1" id="Layer_1" xmlns="http://www.w3.org/2000/svg" xmlns:xlink="http://www.w3.org/1999/xlink" x="0px" y="0px"
	 viewBox="0 0 390 103.7" style="enable-background:new 0 0 390 103.7;" xml:space="preserve">
<style type="text/css">
	.st0{fill-rule:evenodd;clip-rule:evenodd;fill:#14426F;}
	.st1{fill-rule:evenodd;clip-rule:evenodd;fill:#1B75BC;}
	.st2{fill-rule:evenodd;clip-rule:evenodd;fill:#4D72A2;}
	.st3{fill-rule:evenodd;clip-rule:evenodd;fill:#7D9FD3;}
	.st4{fill-rule:evenodd;clip-rule:evenodd;fill:#A5BAE0;}
	.st5{fill:#14426F;}
	.st6{fill:#27AAE1;}
	.st7{fill:#1B75BC;}
	.st8{fill-rule:evenodd;clip-rule:evenodd;fill:#FFFFFF;}
	.st9{fill:#FFFFFF;}
	.st10{fill-rule:evenodd;clip-rule:evenodd;}
</style>
<path class="st8" d="M63.6,30.2h15.4c9.4,0,12.9-7,12.9-15.3H61.3L63.6,30.2z M57,14.8h-7.8c-19,0-34.7,14.4-36.8,32.8h15.5
	c2-10,10.8-17.5,21.3-17.5h10.2L57,14.8z M12.2,52.1c0.1,9.7,3.9,18.6,10.2,25.2l9.9-12c-2.9-3.7-4.7-8.3-4.7-13.3H12.2z M25.4,80.2
	c6.4,5.4,14.7,8.7,23.8,8.7h5.2l-1.9-15.3h-3.2c-5.4,0-10.4-2-14.2-5.3L25.4,80.2z M86.2,88.9l-10-15.3H56.3l2.2,15.3H86.2z"/>
<g>
	<path class="st9" d="M108.7,37.7c-0.3-0.4-0.6-0.8-1-1.1s-0.8-0.5-1.3-0.7c-0.5-0.2-1-0.3-1.5-0.3c-1,0-1.8,0.2-2.4,0.6
		c-0.7,0.4-1.2,0.9-1.6,1.5c-0.4,0.6-0.7,1.3-0.9,2.1c-0.2,0.8-0.3,1.6-0.3,2.5c0,0.8,0.1,1.6,0.3,2.4c0.2,0.8,0.5,1.5,0.9,2.1
		c0.4,0.6,1,1.1,1.6,1.5c0.7,0.4,1.5,0.6,2.4,0.6c1.3,0,2.3-0.4,3.1-1.2c0.7-0.8,1.2-1.8,1.3-3.1h4.1c-0.1,1.2-0.4,2.3-0.8,3.3
		c-0.5,1-1,1.8-1.8,2.5c-0.7,0.7-1.6,1.2-2.6,1.6c-1,0.4-2.1,0.5-3.3,0.5c-1.5,0-2.8-0.3-4-0.8c-1.2-0.5-2.2-1.2-3-2.1
		c-0.8-0.9-1.4-2-1.9-3.2c-0.4-1.2-0.7-2.5-0.7-3.9c0-1.4,0.2-2.8,0.7-4c0.4-1.2,1.1-2.3,1.9-3.2c0.8-0.9,1.8-1.6,3-2.2
		c1.2-0.5,2.5-0.8,4-0.8c1.1,0,2.1,0.2,3,0.5c0.9,0.3,1.8,0.8,2.5,1.3c0.8,0.6,1.4,1.3,1.9,2.2c0.5,0.9,0.8,1.9,0.9,3h-4.1
		C109.1,38.5,109,38.1,108.7,37.7z"/>
	<path class="st9" d="M126.1,32.5l7.2,19.4h-4.4l-1.5-4.3h-7.2l-1.5,4.3h-4.3l7.3-19.4H126.1z M126.3,44.4l-2.4-7.1h-0.1l-2.5,7.1
		H126.3z"/>
	<path class="st9" d="M144.1,32.5c0.9,0,1.8,0.1,2.5,0.2c0.8,0.2,1.4,0.4,2,0.8c0.5,0.4,1,0.9,1.3,1.5c0.3,0.6,0.4,1.4,0.4,2.3
		c0,1-0.2,1.8-0.7,2.4s-1.1,1.2-2,1.6c1.2,0.3,2.1,0.9,2.7,1.8c0.6,0.9,0.9,1.9,0.9,3.1c0,1-0.2,1.8-0.6,2.5
		c-0.4,0.7-0.9,1.3-1.5,1.8c-0.6,0.5-1.4,0.8-2.2,1c-0.8,0.2-1.7,0.3-2.5,0.3H135V32.5H144.1z M143.6,40.3c0.8,0,1.4-0.2,1.9-0.5
		c0.5-0.4,0.7-0.9,0.7-1.8c0-0.5-0.1-0.8-0.2-1.1c-0.2-0.3-0.4-0.5-0.7-0.7c-0.3-0.2-0.6-0.3-0.9-0.3s-0.7-0.1-1.1-0.1h-4v4.5H143.6
		z M143.8,48.6c0.4,0,0.8,0,1.2-0.1c0.4-0.1,0.7-0.2,1-0.4s0.5-0.4,0.7-0.8c0.2-0.3,0.3-0.7,0.3-1.2c0-1-0.3-1.7-0.8-2.1
		c-0.6-0.4-1.3-0.6-2.2-0.6h-4.6v5.3H143.8z"/>
	<path class="st9" d="M163.8,32.5l7.2,19.4h-4.4l-1.5-4.3h-7.2l-1.5,4.3h-4.3l7.3-19.4H163.8z M164,44.4l-2.4-7.1h-0.1l-2.5,7.1H164
		z"/>
	<path class="st9" d="M176.9,32.5v15.8h9.4v3.6h-13.7V32.5H176.9z"/>
	<path class="st9" d="M203.3,32.5v3.6H193v4.2h9.4v3.3H193v4.7h10.4v3.6h-14.7V32.5H203.3z"/>
	<path class="st9" d="M210.6,32.5v19.4h-4.3V32.5H210.6z"/>
	<path class="st9" d="M224.8,32.5c0.9,0,1.7,0.1,2.3,0.4c0.7,0.3,1.3,0.7,1.8,1.2c0.5,0.5,0.9,1.1,1.1,1.7c0.3,0.6,0.4,1.3,0.4,2.1
		c0,1.1-0.2,2.1-0.7,3c-0.5,0.8-1.3,1.5-2.3,1.9v0.1c0.5,0.1,1,0.4,1.3,0.7c0.3,0.3,0.6,0.7,0.8,1.1s0.4,0.9,0.5,1.3
		c0.1,0.5,0.2,1,0.2,1.5c0,0.3,0,0.7,0.1,1.1c0,0.4,0,0.8,0.1,1.3s0.1,0.8,0.2,1.2c0.1,0.4,0.2,0.7,0.4,1h-4.3
		c-0.2-0.6-0.4-1.3-0.4-2.2c-0.1-0.9-0.1-1.7-0.2-2.4c-0.1-1-0.5-1.8-0.9-2.2c-0.5-0.5-1.2-0.7-2.3-0.7h-4.3v7.6h-4.3V32.5H224.8z
		 M223.3,41.3c1,0,1.7-0.2,2.2-0.7s0.7-1.1,0.7-2.1c0-0.9-0.2-1.6-0.7-2c-0.5-0.4-1.2-0.6-2.2-0.6h-4.7v5.5H223.3z"/>
	<path class="st9" d="M233.8,38.2c0.4-1.2,1.1-2.3,1.9-3.2c0.8-0.9,1.8-1.6,3-2.2c1.2-0.5,2.5-0.8,4-0.8c1.5,0,2.8,0.3,4,0.8
		c1.2,0.5,2.2,1.2,3,2.2c0.8,0.9,1.4,2,1.9,3.2c0.4,1.2,0.7,2.6,0.7,4c0,1.4-0.2,2.7-0.7,3.9c-0.4,1.2-1.1,2.3-1.9,3.2
		c-0.8,0.9-1.8,1.6-3,2.1c-1.2,0.5-2.5,0.8-4,0.8c-1.5,0-2.8-0.3-4-0.8c-1.2-0.5-2.2-1.2-3-2.1c-0.8-0.9-1.4-2-1.9-3.2
		c-0.4-1.2-0.7-2.5-0.7-3.9C233.1,40.8,233.3,39.5,233.8,38.2z M237.7,44.6c0.2,0.8,0.5,1.5,0.9,2.1c0.4,0.6,1,1.1,1.6,1.5
		c0.7,0.4,1.5,0.6,2.4,0.6c1,0,1.8-0.2,2.4-0.6c0.7-0.4,1.2-0.9,1.6-1.5s0.7-1.3,0.9-2.1c0.2-0.8,0.3-1.6,0.3-2.4
		c0-0.9-0.1-1.7-0.3-2.5c-0.2-0.8-0.5-1.5-0.9-2.1s-1-1.1-1.6-1.5c-0.7-0.4-1.5-0.6-2.4-0.6c-1,0-1.8,0.2-2.4,0.6
		c-0.7,0.4-1.2,0.9-1.6,1.5c-0.4,0.6-0.7,1.3-0.9,2.1c-0.2,0.8-0.3,1.6-0.3,2.5C237.4,43.1,237.5,43.9,237.7,44.6z"/>
	<path class="st9" d="M270.8,51.7c-0.9,0.4-1.9,0.6-3,0.6c-0.9,0-1.7-0.1-2.5-0.4c-0.8-0.3-1.4-0.6-2-1.1c-0.6-0.5-1-1.1-1.3-1.8
		c-0.3-0.7-0.5-1.5-0.5-2.5c0-0.7,0.1-1.3,0.4-1.9s0.6-1.1,1-1.5s0.9-0.9,1.4-1.2c0.5-0.4,1.1-0.7,1.6-0.9c-0.5-0.6-1-1.3-1.3-1.9
		s-0.5-1.4-0.5-2.2c0-0.7,0.1-1.3,0.4-1.8c0.3-0.5,0.7-1,1.1-1.4c0.5-0.4,1-0.7,1.6-0.9c0.6-0.2,1.2-0.3,1.9-0.3
		c0.7,0,1.4,0.1,2.1,0.3c0.6,0.2,1.2,0.5,1.7,0.9c0.5,0.4,0.9,0.9,1.1,1.5c0.3,0.6,0.4,1.2,0.4,2c0,1.1-0.3,2.1-1,2.9
		c-0.7,0.8-1.5,1.4-2.5,2l2.5,3.1c0.2-0.4,0.4-0.7,0.5-1.1c0.1-0.4,0.2-0.8,0.2-1.2h3.3c-0.1,0.9-0.3,1.7-0.6,2.5
		c-0.3,0.8-0.7,1.6-1.3,2.3l3.9,4.6h-4.7l-1.6-1.9C272.5,50.7,271.7,51.3,270.8,51.7z M267,43.8c-0.3,0.2-0.6,0.4-0.9,0.7
		c-0.3,0.3-0.5,0.6-0.6,0.9s-0.2,0.7-0.2,1.1c0,0.3,0.1,0.7,0.2,1c0.2,0.3,0.4,0.6,0.6,0.8c0.3,0.2,0.5,0.4,0.9,0.5
		c0.3,0.1,0.7,0.2,1,0.2c0.7,0,1.3-0.2,1.8-0.5s1-0.7,1.5-1.2l-3.3-4C267.6,43.5,267.3,43.6,267,43.8z M270.6,35.4
		c-0.4-0.4-0.8-0.5-1.2-0.5c-0.5,0-0.9,0.2-1.2,0.5c-0.3,0.3-0.5,0.7-0.5,1.2c0,0.6,0.2,1.1,0.5,1.6c0.3,0.4,0.7,0.9,1,1.3
		c0.5-0.3,1-0.7,1.4-1.1c0.4-0.4,0.6-0.9,0.6-1.7C271.1,36.2,270.9,35.8,270.6,35.4z"/>
	<path class="st9" d="M298.4,32.5l7.2,19.4h-4.4l-1.5-4.3h-7.2l-1.5,4.3h-4.3l7.3-19.4H298.4z M298.6,44.4l-2.4-7.1h-0.1l-2.5,7.1
		H298.6z"/>
	<path class="st9" d="M310.6,47.1c0.2,0.5,0.5,0.8,0.9,1.1c0.4,0.3,0.8,0.5,1.4,0.6s1.1,0.2,1.6,0.2c0.4,0,0.8,0,1.2-0.1
		c0.4-0.1,0.8-0.2,1.2-0.4c0.4-0.2,0.7-0.4,0.9-0.7c0.3-0.3,0.4-0.7,0.4-1.2c0-0.5-0.2-0.9-0.5-1.3c-0.3-0.3-0.8-0.6-1.3-0.8
		c-0.5-0.2-1.2-0.4-1.8-0.6c-0.7-0.2-1.4-0.3-2.1-0.5c-0.7-0.2-1.4-0.4-2.1-0.7c-0.7-0.3-1.3-0.6-1.8-1c-0.5-0.4-1-0.9-1.3-1.6
		c-0.3-0.6-0.5-1.4-0.5-2.3c0-1,0.2-1.9,0.6-2.6c0.4-0.7,1-1.3,1.7-1.8s1.5-0.9,2.3-1.1c0.9-0.2,1.7-0.4,2.6-0.4c1,0,2,0.1,2.9,0.3
		c0.9,0.2,1.8,0.6,2.5,1.1c0.7,0.5,1.3,1.2,1.7,1.9c0.4,0.8,0.6,1.7,0.6,2.9h-4.1c0-0.6-0.2-1.1-0.4-1.4c-0.2-0.4-0.5-0.7-0.8-0.9
		s-0.7-0.4-1.2-0.5c-0.4-0.1-0.9-0.1-1.5-0.1c-0.3,0-0.7,0-1,0.1s-0.7,0.2-0.9,0.4s-0.5,0.4-0.7,0.7s-0.3,0.6-0.3,1
		c0,0.4,0.1,0.7,0.2,0.9c0.1,0.2,0.4,0.5,0.9,0.7c0.4,0.2,1,0.4,1.8,0.6c0.8,0.2,1.7,0.5,2.9,0.8c0.4,0.1,0.9,0.2,1.5,0.4
		c0.6,0.2,1.3,0.5,1.9,0.9s1.2,1,1.6,1.7c0.5,0.7,0.7,1.6,0.7,2.7c0,0.9-0.2,1.7-0.5,2.5s-0.9,1.4-1.5,2s-1.5,1-2.5,1.3
		c-1,0.3-2.2,0.5-3.5,0.5c-1.1,0-2.1-0.1-3.1-0.4c-1-0.3-1.9-0.7-2.7-1.2c-0.8-0.6-1.4-1.3-1.8-2.1c-0.5-0.9-0.7-1.9-0.7-3.1h4.1
		C310.2,46.1,310.3,46.6,310.6,47.1z"/>
	<path class="st9" d="M324.7,38.2c0.4-1.2,1.1-2.3,1.9-3.2c0.8-0.9,1.8-1.6,3-2.2c1.2-0.5,2.5-0.8,4-0.8c1.5,0,2.8,0.3,4,0.8
		c1.2,0.5,2.2,1.2,3,2.2c0.8,0.9,1.4,2,1.9,3.2c0.4,1.2,0.7,2.6,0.7,4c0,1.4-0.2,2.7-0.7,3.9c-0.4,1.2-1.1,2.3-1.9,3.2
		c-0.8,0.9-1.8,1.6-3,2.1c-1.2,0.5-2.5,0.8-4,0.8c-1.5,0-2.8-0.3-4-0.8c-1.2-0.5-2.2-1.2-3-2.1c-0.8-0.9-1.4-2-1.9-3.2
		c-0.4-1.2-0.7-2.5-0.7-3.9C324.1,40.8,324.3,39.5,324.7,38.2z M328.6,44.6c0.2,0.8,0.5,1.5,0.9,2.1c0.4,0.6,1,1.1,1.6,1.5
		c0.7,0.4,1.5,0.6,2.4,0.6c1,0,1.8-0.2,2.4-0.6c0.7-0.4,1.2-0.9,1.6-1.5s0.7-1.3,0.9-2.1c0.2-0.8,0.3-1.6,0.3-2.4
		c0-0.9-0.1-1.7-0.3-2.5c-0.2-0.8-0.5-1.5-0.9-2.1s-1-1.1-1.6-1.5c-0.7-0.4-1.5-0.6-2.4-0.6c-1,0-1.8,0.2-2.4,0.6
		c-0.7,0.4-1.2,0.9-1.6,1.5c-0.4,0.6-0.7,1.3-0.9,2.1c-0.2,0.8-0.3,1.6-0.3,2.5C328.4,43.1,328.4,43.9,328.6,44.6z"/>
	<path class="st9" d="M358.5,37.7c-0.3-0.4-0.6-0.8-1-1.1s-0.8-0.5-1.3-0.7c-0.5-0.2-1-0.3-1.5-0.3c-1,0-1.8,0.2-2.4,0.6
		c-0.7,0.4-1.2,0.9-1.6,1.5c-0.4,0.6-0.7,1.3-0.9,2.1c-0.2,0.8-0.3,1.6-0.3,2.5c0,0.8,0.1,1.6,0.3,2.4c0.2,0.8,0.5,1.5,0.9,2.1
		c0.4,0.6,1,1.1,1.6,1.5c0.7,0.4,1.5,0.6,2.4,0.6c1.3,0,2.3-0.4,3.1-1.2c0.7-0.8,1.2-1.8,1.3-3.1h4.1c-0.1,1.2-0.4,2.3-0.8,3.3
		c-0.5,1-1,1.8-1.8,2.5c-0.7,0.7-1.6,1.2-2.6,1.6c-1,0.4-2.1,0.5-3.3,0.5c-1.5,0-2.8-0.3-4-0.8c-1.2-0.5-2.2-1.2-3-2.1
		c-0.8-0.9-1.4-2-1.9-3.2c-0.4-1.2-0.7-2.5-0.7-3.9c0-1.4,0.2-2.8,0.7-4c0.4-1.2,1.1-2.3,1.9-3.2c0.8-0.9,1.8-1.6,3-2.2
		c1.2-0.5,2.5-0.8,4-0.8c1.1,0,2.1,0.2,3,0.5c0.9,0.3,1.8,0.8,2.5,1.3c0.8,0.6,1.4,1.3,1.9,2.2c0.5,0.9,0.8,1.9,0.9,3H359
		C358.9,38.5,358.7,38.1,358.5,37.7z"/>
	<path class="st9" d="M370.2,47.7v4.2h-4.3v-4.2H370.2z"/>
</g>
<g>
	<path class="st9" d="M103.2,60.3v1.2h-6.1V65h5.7v1.2h-5.7V70h6.2v1.2h-7.6v-11H103.2z"/>
	<path class="st9" d="M110.5,61.8c-0.5-0.4-1.1-0.5-1.9-0.5c-0.3,0-0.6,0-0.9,0.1c-0.3,0.1-0.6,0.2-0.8,0.3
		c-0.2,0.1-0.4,0.3-0.6,0.6s-0.2,0.5-0.2,0.9c0,0.3,0.1,0.6,0.3,0.8c0.2,0.2,0.5,0.4,0.8,0.5s0.7,0.2,1.1,0.3
		c0.4,0.1,0.8,0.2,1.3,0.3c0.4,0.1,0.9,0.2,1.3,0.4c0.4,0.1,0.8,0.3,1.1,0.6c0.3,0.2,0.6,0.5,0.8,0.9c0.2,0.4,0.3,0.8,0.3,1.4
		c0,0.6-0.1,1.1-0.4,1.5s-0.6,0.8-1,1s-0.9,0.5-1.4,0.6c-0.5,0.1-1,0.2-1.5,0.2c-0.6,0-1.2-0.1-1.7-0.2c-0.5-0.2-1-0.4-1.4-0.7
		s-0.7-0.7-1-1.2c-0.2-0.5-0.4-1.1-0.4-1.7h1.4c0,0.5,0.1,0.9,0.3,1.2c0.2,0.3,0.4,0.6,0.7,0.8c0.3,0.2,0.6,0.4,1,0.5
		c0.4,0.1,0.8,0.2,1.2,0.2c0.3,0,0.7,0,1-0.1s0.6-0.2,0.9-0.3c0.3-0.1,0.5-0.4,0.6-0.6c0.2-0.3,0.2-0.6,0.2-1c0-0.4-0.1-0.7-0.3-0.9
		c-0.2-0.2-0.5-0.4-0.8-0.6s-0.7-0.3-1.1-0.4c-0.4-0.1-0.8-0.2-1.3-0.3c-0.4-0.1-0.9-0.2-1.3-0.3c-0.4-0.1-0.8-0.3-1.1-0.5
		s-0.6-0.5-0.8-0.8c-0.2-0.3-0.3-0.8-0.3-1.3c0-0.6,0.1-1,0.3-1.4c0.2-0.4,0.5-0.7,0.9-1s0.8-0.5,1.3-0.6c0.5-0.1,1-0.2,1.5-0.2
		c0.6,0,1.1,0.1,1.6,0.2c0.5,0.1,0.9,0.3,1.3,0.6c0.4,0.3,0.7,0.6,0.9,1.1s0.3,1,0.3,1.6h-1.4C111.3,62.7,111,62.1,110.5,61.8z"/>
	<path class="st9" d="M121.6,61.8c-0.6-0.4-1.2-0.6-2-0.6c-0.7,0-1.2,0.1-1.7,0.4c-0.5,0.2-0.9,0.6-1.2,1c-0.3,0.4-0.5,0.9-0.7,1.4
		c-0.1,0.5-0.2,1.1-0.2,1.7c0,0.6,0.1,1.2,0.2,1.8s0.4,1,0.7,1.5c0.3,0.4,0.7,0.7,1.2,1s1,0.4,1.7,0.4c0.5,0,0.9-0.1,1.3-0.2
		c0.4-0.2,0.7-0.4,1-0.7s0.5-0.6,0.6-1c0.2-0.4,0.2-0.8,0.3-1.3h1.5c-0.1,1.4-0.6,2.5-1.4,3.2c-0.8,0.8-1.9,1.2-3.3,1.2
		c-0.9,0-1.6-0.1-2.2-0.4c-0.6-0.3-1.2-0.7-1.6-1.2c-0.4-0.5-0.7-1.1-0.9-1.8c-0.2-0.7-0.3-1.4-0.3-2.2s0.1-1.6,0.3-2.3
		c0.2-0.7,0.6-1.3,1-1.8c0.4-0.5,1-0.9,1.6-1.2c0.7-0.3,1.4-0.5,2.2-0.5c0.6,0,1.1,0.1,1.6,0.2c0.5,0.2,1,0.4,1.4,0.7
		c0.4,0.3,0.7,0.7,1,1.1s0.4,1,0.5,1.5h-1.5C122.5,62.8,122.2,62.2,121.6,61.8z"/>
	<path class="st9" d="M131.2,60.3c1,0,1.9,0.3,2.5,0.8c0.6,0.5,0.9,1.2,0.9,2.1c0,0.7-0.2,1.3-0.5,1.8c-0.3,0.5-0.8,0.8-1.5,1v0
		c0.3,0.1,0.6,0.2,0.8,0.3c0.2,0.1,0.4,0.3,0.5,0.5c0.1,0.2,0.2,0.4,0.3,0.7c0.1,0.2,0.1,0.5,0.1,0.8c0,0.3,0,0.5,0,0.8
		c0,0.3,0,0.5,0.1,0.8s0.1,0.5,0.2,0.8c0.1,0.2,0.2,0.5,0.3,0.6h-1.6c-0.1-0.1-0.2-0.3-0.2-0.5c0-0.2-0.1-0.4-0.1-0.7
		c0-0.2,0-0.5,0-0.8c0-0.3,0-0.5-0.1-0.8c0-0.3-0.1-0.5-0.2-0.8c-0.1-0.2-0.2-0.5-0.3-0.6c-0.1-0.2-0.3-0.3-0.5-0.4
		c-0.2-0.1-0.5-0.2-0.9-0.2h-3.6v4.7h-1.5v-11H131.2z M131.6,65.2c0.3-0.1,0.6-0.2,0.8-0.3c0.2-0.1,0.4-0.3,0.6-0.6
		c0.1-0.3,0.2-0.6,0.2-1c0-0.6-0.2-1-0.5-1.4c-0.3-0.3-0.8-0.5-1.5-0.5h-3.6v3.8h3C130.9,65.3,131.2,65.3,131.6,65.2z"/>
	<path class="st9" d="M138.1,60.3v11h-1.5v-11H138.1z"/>
	<path class="st9" d="M139.4,61.5v-1.2h8.8v1.2h-3.7v9.7h-1.5v-9.7H139.4z"/>
	<path class="st9" d="M149.1,63.6c0.2-0.7,0.6-1.3,1-1.8c0.4-0.5,1-1,1.6-1.3c0.7-0.3,1.4-0.5,2.3-0.5s1.6,0.2,2.3,0.5
		c0.7,0.3,1.2,0.7,1.6,1.3c0.4,0.5,0.8,1.1,1,1.8c0.2,0.7,0.3,1.4,0.3,2.2s-0.1,1.5-0.3,2.2c-0.2,0.7-0.6,1.3-1,1.8
		c-0.4,0.5-1,1-1.6,1.3c-0.7,0.3-1.4,0.5-2.3,0.5s-1.6-0.2-2.3-0.5c-0.7-0.3-1.2-0.7-1.6-1.3c-0.4-0.5-0.8-1.1-1-1.8
		c-0.2-0.7-0.3-1.4-0.3-2.2S148.9,64.3,149.1,63.6z M150.5,67.4c0.1,0.5,0.4,1,0.7,1.5c0.3,0.4,0.7,0.8,1.2,1
		c0.5,0.3,1.1,0.4,1.7,0.4s1.2-0.1,1.7-0.4c0.5-0.3,0.9-0.6,1.2-1c0.3-0.4,0.5-0.9,0.7-1.5s0.2-1.1,0.2-1.6s-0.1-1.1-0.2-1.6
		s-0.4-1-0.7-1.5c-0.3-0.4-0.7-0.8-1.2-1c-0.5-0.3-1.1-0.4-1.7-0.4s-1.2,0.1-1.7,0.4c-0.5,0.3-0.9,0.6-1.2,1
		c-0.3,0.4-0.5,0.9-0.7,1.5s-0.2,1.1-0.2,1.6S150.3,66.8,150.5,67.4z"/>
	<path class="st9" d="M166.3,60.3c1,0,1.9,0.3,2.5,0.8c0.6,0.5,0.9,1.2,0.9,2.1c0,0.7-0.2,1.3-0.5,1.8c-0.3,0.5-0.8,0.8-1.5,1v0
		c0.3,0.1,0.6,0.2,0.8,0.3c0.2,0.1,0.4,0.3,0.5,0.5c0.1,0.2,0.2,0.4,0.3,0.7c0.1,0.2,0.1,0.5,0.1,0.8c0,0.3,0,0.5,0,0.8
		c0,0.3,0,0.5,0.1,0.8s0.1,0.5,0.2,0.8c0.1,0.2,0.2,0.5,0.3,0.6h-1.6c-0.1-0.1-0.2-0.3-0.2-0.5c0-0.2-0.1-0.4-0.1-0.7
		c0-0.2,0-0.5,0-0.8c0-0.3,0-0.5-0.1-0.8c0-0.3-0.1-0.5-0.2-0.8c-0.1-0.2-0.2-0.5-0.3-0.6c-0.1-0.2-0.3-0.3-0.5-0.4
		c-0.2-0.1-0.5-0.2-0.9-0.2h-3.6v4.7h-1.5v-11H166.3z M166.6,65.2c0.3-0.1,0.6-0.2,0.8-0.3c0.2-0.1,0.4-0.3,0.6-0.6
		c0.1-0.3,0.2-0.6,0.2-1c0-0.6-0.2-1-0.5-1.4c-0.3-0.3-0.8-0.5-1.5-0.5h-3.6v3.8h3C165.9,65.3,166.3,65.3,166.6,65.2z"/>
	<path class="st9" d="M173.2,60.3v11h-1.5v-11H173.2z"/>
	<path class="st9" d="M175.3,63.6c0.2-0.7,0.6-1.3,1-1.8c0.4-0.5,1-1,1.6-1.3c0.7-0.3,1.4-0.5,2.3-0.5s1.6,0.2,2.3,0.5
		c0.7,0.3,1.2,0.7,1.6,1.3c0.4,0.5,0.8,1.1,1,1.8c0.2,0.7,0.3,1.4,0.3,2.2s-0.1,1.5-0.3,2.2c-0.2,0.7-0.6,1.3-1,1.8
		c-0.4,0.5-1,1-1.6,1.3c-0.7,0.3-1.4,0.5-2.3,0.5s-1.6-0.2-2.3-0.5c-0.7-0.3-1.2-0.7-1.6-1.3c-0.4-0.5-0.8-1.1-1-1.8
		c-0.2-0.7-0.3-1.4-0.3-2.2S175.1,64.3,175.3,63.6z M176.7,67.4c0.1,0.5,0.4,1,0.7,1.5c0.3,0.4,0.7,0.8,1.2,1
		c0.5,0.3,1.1,0.4,1.7,0.4s1.2-0.1,1.7-0.4c0.5-0.3,0.9-0.6,1.2-1c0.3-0.4,0.5-0.9,0.7-1.5s0.2-1.1,0.2-1.6s-0.1-1.1-0.2-1.6
		s-0.4-1-0.7-1.5c-0.3-0.4-0.7-0.8-1.2-1c-0.5-0.3-1.1-0.4-1.7-0.4s-1.2,0.1-1.7,0.4c-0.5,0.3-0.9,0.6-1.2,1
		c-0.3,0.4-0.5,0.9-0.7,1.5s-0.2,1.1-0.2,1.6S176.5,66.8,176.7,67.4z"/>
	<path class="st9" d="M195.3,60.3c1.7,0,3,0.4,3.9,1.3s1.4,2.2,1.4,3.9c0,0.9-0.1,1.7-0.3,2.5s-0.5,1.3-1,1.8
		c-0.4,0.5-1,0.9-1.6,1.1s-1.5,0.4-2.4,0.4h-3.8v-11H195.3z M195.5,70c0.2,0,0.4,0,0.6,0c0.2,0,0.5-0.1,0.8-0.2
		c0.3-0.1,0.6-0.2,0.8-0.4s0.5-0.4,0.7-0.8c0.2-0.3,0.4-0.7,0.5-1.2c0.1-0.5,0.2-1.1,0.2-1.7c0-0.7-0.1-1.2-0.2-1.8s-0.3-1-0.6-1.3
		c-0.3-0.4-0.7-0.6-1.1-0.8c-0.5-0.2-1-0.3-1.7-0.3H193V70H195.5z"/>
	<path class="st9" d="M210,60.3v1.2h-6.1V65h5.7v1.2h-5.7V70h6.2v1.2h-7.6v-11H210z"/>
	<path class="st9" d="M220.7,60.3l4.3,11h-1.6l-1.2-3.3h-4.6l-1.2,3.3h-1.5l4.3-11H220.7z M221.7,66.7l-1.8-5.1h0l-1.9,5.1H221.7z"
		/>
	<path class="st9" d="M230,60.3c0.2,0,0.5,0,0.8,0s0.5,0,0.8,0c0.3,0,0.5,0.1,0.7,0.1c0.2,0.1,0.4,0.1,0.6,0.2
		c0.4,0.2,0.7,0.5,0.9,0.9s0.4,0.8,0.4,1.4c0,0.6-0.1,1.1-0.4,1.5c-0.3,0.4-0.7,0.7-1.2,0.9v0c0.7,0.1,1.2,0.5,1.6,0.9
		c0.4,0.5,0.5,1,0.5,1.7c0,0.4-0.1,0.8-0.2,1.2c-0.1,0.4-0.4,0.7-0.6,1c-0.3,0.3-0.6,0.5-1,0.7c-0.4,0.2-0.9,0.3-1.4,0.3H226v-11
		H230z M230.4,65c0.8,0,1.4-0.1,1.8-0.4c0.4-0.3,0.5-0.7,0.5-1.3c0-0.4-0.1-0.7-0.2-0.9c-0.1-0.2-0.3-0.4-0.5-0.5
		c-0.2-0.1-0.5-0.2-0.7-0.2c-0.3,0-0.6-0.1-0.9-0.1h-2.9V65H230.4z M231.1,70c0.6,0,1.2-0.2,1.5-0.5c0.4-0.3,0.5-0.8,0.5-1.4
		c0-0.4-0.1-0.7-0.2-0.9c-0.1-0.2-0.3-0.4-0.5-0.6c-0.2-0.1-0.5-0.2-0.8-0.3c-0.3-0.1-0.6-0.1-0.9-0.1h-3.3V70H231.1z"/>
	<path class="st9" d="M236.3,63.6c0.2-0.7,0.6-1.3,1-1.8c0.4-0.5,1-1,1.6-1.3c0.7-0.3,1.4-0.5,2.3-0.5s1.6,0.2,2.3,0.5
		c0.7,0.3,1.2,0.7,1.6,1.3c0.4,0.5,0.8,1.1,1,1.8c0.2,0.7,0.3,1.4,0.3,2.2s-0.1,1.5-0.3,2.2c-0.2,0.7-0.6,1.3-1,1.8
		c-0.4,0.5-1,1-1.6,1.3c-0.7,0.3-1.4,0.5-2.3,0.5s-1.6-0.2-2.3-0.5c-0.7-0.3-1.2-0.7-1.6-1.3c-0.4-0.5-0.8-1.1-1-1.8
		c-0.2-0.7-0.3-1.4-0.3-2.2S236.1,64.3,236.3,63.6z M237.6,67.4c0.1,0.5,0.4,1,0.7,1.5c0.3,0.4,0.7,0.8,1.2,1
		c0.5,0.3,1.1,0.4,1.7,0.4s1.2-0.1,1.7-0.4c0.5-0.3,0.9-0.6,1.2-1c0.3-0.4,0.5-0.9,0.7-1.5s0.2-1.1,0.2-1.6s-0.1-1.1-0.2-1.6
		s-0.4-1-0.7-1.5c-0.3-0.4-0.7-0.8-1.2-1c-0.5-0.3-1.1-0.4-1.7-0.4s-1.2,0.1-1.7,0.4c-0.5,0.3-0.9,0.6-1.2,1
		c-0.3,0.4-0.5,0.9-0.7,1.5s-0.2,1.1-0.2,1.6S237.5,66.8,237.6,67.4z"/>
	<path class="st9" d="M254.8,71.1c-0.6,0.3-1.3,0.4-1.9,0.4c-0.8,0-1.6-0.2-2.2-0.5s-1.2-0.7-1.6-1.2c-0.5-0.5-0.8-1.1-1-1.8
		c-0.2-0.7-0.4-1.4-0.4-2.1c0-0.8,0.1-1.6,0.3-2.3c0.2-0.7,0.5-1.4,1-1.9c0.4-0.5,1-1,1.6-1.3c0.7-0.3,1.4-0.5,2.3-0.5
		c0.6,0,1.2,0.1,1.7,0.2c0.5,0.1,1,0.4,1.4,0.7c0.4,0.3,0.8,0.7,1,1.1c0.3,0.5,0.5,1,0.6,1.7h-1.5c-0.1-0.4-0.2-0.8-0.4-1.1
		c-0.2-0.3-0.4-0.6-0.7-0.7c-0.3-0.2-0.6-0.3-1-0.4c-0.4-0.1-0.8-0.1-1.2-0.1c-0.7,0-1.2,0.1-1.7,0.4c-0.5,0.3-0.9,0.6-1.2,1.1
		c-0.3,0.4-0.5,0.9-0.7,1.5s-0.2,1.1-0.2,1.7c0,0.6,0.1,1.1,0.2,1.7s0.4,1,0.7,1.4s0.7,0.7,1.2,1c0.5,0.2,1,0.4,1.6,0.4
		c0.6,0,1.1-0.1,1.5-0.3c0.4-0.2,0.8-0.4,1.1-0.8s0.5-0.7,0.7-1.1c0.2-0.4,0.2-0.9,0.2-1.4h-3.5v-1.2h4.8v5.8h-0.9l-0.4-1.4
		C256,70.4,255.5,70.9,254.8,71.1z"/>
	<path class="st9" d="M264.5,60.3l4.3,11h-1.6l-1.2-3.3h-4.6l-1.2,3.3h-1.5l4.3-11H264.5z M265.5,66.7l-1.8-5.1h0l-1.9,5.1H265.5z"
		/>
	<path class="st9" d="M273.6,60.3c1.7,0,3,0.4,3.9,1.3s1.4,2.2,1.4,3.9c0,0.9-0.1,1.7-0.3,2.5s-0.5,1.3-1,1.8
		c-0.4,0.5-1,0.9-1.6,1.1s-1.5,0.4-2.4,0.4h-3.8v-11H273.6z M273.8,70c0.2,0,0.4,0,0.6,0c0.2,0,0.5-0.1,0.8-0.2
		c0.3-0.1,0.6-0.2,0.8-0.4s0.5-0.4,0.7-0.8c0.2-0.3,0.4-0.7,0.5-1.2c0.1-0.5,0.2-1.1,0.2-1.7c0-0.7-0.1-1.2-0.2-1.8s-0.3-1-0.6-1.3
		c-0.3-0.4-0.7-0.6-1.1-0.8c-0.5-0.2-1-0.3-1.7-0.3h-2.5V70H273.8z"/>
	<path class="st9" d="M280.4,63.6c0.2-0.7,0.6-1.3,1-1.8c0.4-0.5,1-1,1.6-1.3c0.7-0.3,1.4-0.5,2.3-0.5s1.6,0.2,2.3,0.5
		c0.7,0.3,1.2,0.7,1.6,1.3c0.4,0.5,0.8,1.1,1,1.8c0.2,0.7,0.3,1.4,0.3,2.2s-0.1,1.5-0.3,2.2c-0.2,0.7-0.6,1.3-1,1.8
		c-0.4,0.5-1,1-1.6,1.3c-0.7,0.3-1.4,0.5-2.3,0.5s-1.6-0.2-2.3-0.5c-0.7-0.3-1.2-0.7-1.6-1.3c-0.4-0.5-0.8-1.1-1-1.8
		c-0.2-0.7-0.3-1.4-0.3-2.2S280.2,64.3,280.4,63.6z M281.8,67.4c0.1,0.5,0.4,1,0.7,1.5c0.3,0.4,0.7,0.8,1.2,1
		c0.5,0.3,1.1,0.4,1.7,0.4s1.2-0.1,1.7-0.4c0.5-0.3,0.9-0.6,1.2-1c0.3-0.4,0.5-0.9,0.7-1.5s0.2-1.1,0.2-1.6s-0.1-1.1-0.2-1.6
		s-0.4-1-0.7-1.5c-0.3-0.4-0.7-0.8-1.2-1c-0.5-0.3-1.1-0.4-1.7-0.4s-1.2,0.1-1.7,0.4c-0.5,0.3-0.9,0.6-1.2,1
		c-0.3,0.4-0.5,0.9-0.7,1.5s-0.2,1.1-0.2,1.6S281.6,66.8,281.8,67.4z"/>
	<path class="st9" d="M297.9,61.8c-0.5-0.4-1.1-0.5-1.9-0.5c-0.3,0-0.6,0-0.9,0.1c-0.3,0.1-0.6,0.2-0.8,0.3
		c-0.2,0.1-0.4,0.3-0.6,0.6s-0.2,0.5-0.2,0.9c0,0.3,0.1,0.6,0.3,0.8c0.2,0.2,0.5,0.4,0.8,0.5s0.7,0.2,1.1,0.3
		c0.4,0.1,0.8,0.2,1.3,0.3c0.4,0.1,0.9,0.2,1.3,0.4c0.4,0.1,0.8,0.3,1.1,0.6c0.3,0.2,0.6,0.5,0.8,0.9c0.2,0.4,0.3,0.8,0.3,1.4
		c0,0.6-0.1,1.1-0.4,1.5s-0.6,0.8-1,1s-0.9,0.5-1.4,0.6c-0.5,0.1-1,0.2-1.5,0.2c-0.6,0-1.2-0.1-1.7-0.2c-0.5-0.2-1-0.4-1.4-0.7
		s-0.7-0.7-1-1.2c-0.2-0.5-0.4-1.1-0.4-1.7h1.4c0,0.5,0.1,0.9,0.3,1.2c0.2,0.3,0.4,0.6,0.7,0.8c0.3,0.2,0.6,0.4,1,0.5
		c0.4,0.1,0.8,0.2,1.2,0.2c0.3,0,0.7,0,1-0.1s0.6-0.2,0.9-0.3c0.3-0.1,0.5-0.4,0.6-0.6c0.2-0.3,0.2-0.6,0.2-1c0-0.4-0.1-0.7-0.3-0.9
		c-0.2-0.2-0.5-0.4-0.8-0.6s-0.7-0.3-1.1-0.4c-0.4-0.1-0.8-0.2-1.3-0.3c-0.4-0.1-0.9-0.2-1.3-0.3c-0.4-0.1-0.8-0.3-1.1-0.5
		s-0.6-0.5-0.8-0.8c-0.2-0.3-0.3-0.8-0.3-1.3c0-0.6,0.1-1,0.3-1.4c0.2-0.4,0.5-0.7,0.9-1s0.8-0.5,1.3-0.6c0.5-0.1,1-0.2,1.5-0.2
		c0.6,0,1.1,0.1,1.6,0.2c0.5,0.1,0.9,0.3,1.3,0.6c0.4,0.3,0.7,0.6,0.9,1.1s0.3,1,0.3,1.6h-1.4C298.6,62.7,298.4,62.1,297.9,61.8z"/>
</g>
</svg>
