<?xml version="1.0" encoding="utf-8"?>
<!-- Generator: Adobe Illustrator 21.1.0, SVG Export Plug-In . SVG Version: 6.00 Build 0)  -->
<svg version="1.1" id="Layer_1" xmlns="http://www.w3.org/2000/svg" xmlns:xlink="http://www.w3.org/1999/xlink" x="0px" y="0px"
	 viewBox="0 0 390 97.1" style="enable-background:new 0 0 390 97.1;" xml:space="preserve">
<style type="text/css">
	.st0{fill-rule:evenodd;clip-rule:evenodd;fill:#14426F;}
	.st1{fill-rule:evenodd;clip-rule:evenodd;fill:#1B75BC;}
	.st2{fill-rule:evenodd;clip-rule:evenodd;fill:#4D72A2;}
	.st3{fill-rule:evenodd;clip-rule:evenodd;fill:#7D9FD3;}
	.st4{fill-rule:evenodd;clip-rule:evenodd;fill:#A5BAE0;}
	.st5{fill:#14426F;}
	.st6{fill:#27AAE1;}
	.st7{fill:#1B75BC;}
	.st8{fill-rule:evenodd;clip-rule:evenodd;fill:#FFFFFF;}
	.st9{fill:#FFFFFF;}
	.st10{fill-rule:evenodd;clip-rule:evenodd;}
</style>
<path class="st0" d="M63.6,26.8h15.4c9.4,0,12.9-7,12.9-15.3H61.3L63.6,26.8z"/>
<path class="st1" d="M57,11.5h-7.8c-19,0-34.7,14.4-36.8,32.8h15.5c2-10,10.8-17.5,21.3-17.5h10.2L57,11.5z"/>
<path class="st2" d="M12.2,48.8c0.1,9.7,3.9,18.6,10.2,25.2l9.9-12c-2.9-3.7-4.7-8.3-4.7-13.3H12.2z"/>
<path class="st3" d="M25.4,76.9c6.4,5.4,14.7,8.7,23.8,8.7h5.2l-1.9-15.3h-3.2c-5.4,0-10.4-2-14.2-5.3L25.4,76.9z"/>
<polygon class="st4" points="86.2,85.6 76.2,70.3 56.3,70.3 58.5,85.6 "/>
<g>
	<path class="st5" d="M108.7,34.3c-0.3-0.4-0.6-0.8-1-1.1s-0.8-0.5-1.3-0.7c-0.5-0.2-1-0.3-1.5-0.3c-1,0-1.8,0.2-2.4,0.6
		c-0.7,0.4-1.2,0.9-1.6,1.5c-0.4,0.6-0.7,1.3-0.9,2.1c-0.2,0.8-0.3,1.6-0.3,2.5c0,0.8,0.1,1.6,0.3,2.4c0.2,0.8,0.5,1.5,0.9,2.1
		c0.4,0.6,1,1.1,1.6,1.5c0.7,0.4,1.5,0.6,2.4,0.6c1.3,0,2.3-0.4,3.1-1.2c0.7-0.8,1.2-1.8,1.3-3.1h4.1c-0.1,1.2-0.4,2.3-0.8,3.3
		c-0.5,1-1,1.8-1.8,2.5c-0.7,0.7-1.6,1.2-2.6,1.6c-1,0.4-2.1,0.5-3.3,0.5c-1.5,0-2.8-0.3-4-0.8c-1.2-0.5-2.2-1.2-3-2.1
		c-0.8-0.9-1.4-2-1.9-3.2c-0.4-1.2-0.7-2.5-0.7-3.9c0-1.4,0.2-2.8,0.7-4c0.4-1.2,1.1-2.3,1.9-3.2c0.8-0.9,1.8-1.6,3-2.2
		c1.2-0.5,2.5-0.8,4-0.8c1.1,0,2.1,0.2,3,0.5c0.9,0.3,1.8,0.8,2.5,1.3c0.8,0.6,1.4,1.3,1.9,2.2c0.5,0.9,0.8,1.9,0.9,3h-4.1
		C109.1,35.2,109,34.8,108.7,34.3z"/>
	<path class="st5" d="M126.1,29.2l7.2,19.4h-4.4l-1.5-4.3h-7.2l-1.5,4.3h-4.3l7.3-19.4H126.1z M126.3,41.1l-2.4-7.1h-0.1l-2.5,7.1
		H126.3z"/>
	<path class="st5" d="M144.1,29.2c0.9,0,1.8,0.1,2.5,0.2c0.8,0.2,1.4,0.4,2,0.8c0.5,0.4,1,0.9,1.3,1.5c0.3,0.6,0.4,1.4,0.4,2.3
		c0,1-0.2,1.8-0.7,2.4s-1.1,1.2-2,1.6c1.2,0.3,2.1,0.9,2.7,1.8c0.6,0.9,0.9,1.9,0.9,3.1c0,1-0.2,1.8-0.6,2.5
		c-0.4,0.7-0.9,1.3-1.5,1.8c-0.6,0.5-1.4,0.8-2.2,1c-0.8,0.2-1.7,0.3-2.5,0.3H135V29.2H144.1z M143.6,37c0.8,0,1.4-0.2,1.9-0.5
		c0.5-0.4,0.7-0.9,0.7-1.8c0-0.5-0.1-0.8-0.2-1.1c-0.2-0.3-0.4-0.5-0.7-0.7c-0.3-0.2-0.6-0.3-0.9-0.3s-0.7-0.1-1.1-0.1h-4V37H143.6z
		 M143.8,45.2c0.4,0,0.8,0,1.2-0.1c0.4-0.1,0.7-0.2,1-0.4s0.5-0.4,0.7-0.8c0.2-0.3,0.3-0.7,0.3-1.2c0-1-0.3-1.7-0.8-2.1
		c-0.6-0.4-1.3-0.6-2.2-0.6h-4.6v5.3H143.8z"/>
	<path class="st5" d="M163.8,29.2l7.2,19.4h-4.4l-1.5-4.3h-7.2l-1.5,4.3h-4.3l7.3-19.4H163.8z M164,41.1l-2.4-7.1h-0.1l-2.5,7.1H164
		z"/>
	<path class="st5" d="M176.9,29.2V45h9.4v3.6h-13.7V29.2H176.9z"/>
	<path class="st5" d="M203.3,29.2v3.6H193v4.2h9.4v3.3H193V45h10.4v3.6h-14.7V29.2H203.3z"/>
	<path class="st5" d="M210.6,29.2v19.4h-4.3V29.2H210.6z"/>
	<path class="st5" d="M224.8,29.2c0.9,0,1.7,0.1,2.3,0.4c0.7,0.3,1.3,0.7,1.8,1.2c0.5,0.5,0.9,1.1,1.1,1.7c0.3,0.6,0.4,1.3,0.4,2.1
		c0,1.1-0.2,2.1-0.7,3c-0.5,0.8-1.3,1.5-2.3,1.9v0.1c0.5,0.1,1,0.4,1.3,0.7c0.3,0.3,0.6,0.7,0.8,1.1s0.4,0.9,0.5,1.3
		c0.1,0.5,0.2,1,0.2,1.5c0,0.3,0,0.7,0.1,1.1c0,0.4,0,0.8,0.1,1.3s0.1,0.8,0.2,1.2c0.1,0.4,0.2,0.7,0.4,1h-4.3
		c-0.2-0.6-0.4-1.3-0.4-2.2c-0.1-0.9-0.1-1.7-0.2-2.4c-0.1-1-0.5-1.8-0.9-2.2c-0.5-0.5-1.2-0.7-2.3-0.7h-4.3v7.6h-4.3V29.2H224.8z
		 M223.3,37.9c1,0,1.7-0.2,2.2-0.7s0.7-1.1,0.7-2.1c0-0.9-0.2-1.6-0.7-2c-0.5-0.4-1.2-0.6-2.2-0.6h-4.7v5.5H223.3z"/>
	<path class="st5" d="M233.8,34.9c0.4-1.2,1.1-2.3,1.9-3.2c0.8-0.9,1.8-1.6,3-2.2c1.2-0.5,2.5-0.8,4-0.8c1.5,0,2.8,0.3,4,0.8
		c1.2,0.5,2.2,1.2,3,2.2c0.8,0.9,1.4,2,1.9,3.2c0.4,1.2,0.7,2.6,0.7,4c0,1.4-0.2,2.7-0.7,3.9c-0.4,1.2-1.1,2.3-1.9,3.2
		c-0.8,0.9-1.8,1.6-3,2.1c-1.2,0.5-2.5,0.8-4,0.8c-1.5,0-2.8-0.3-4-0.8c-1.2-0.5-2.2-1.2-3-2.1c-0.8-0.9-1.4-2-1.9-3.2
		c-0.4-1.2-0.7-2.5-0.7-3.9C233.1,37.5,233.3,36.2,233.8,34.9z M237.7,41.3c0.2,0.8,0.5,1.5,0.9,2.1c0.4,0.6,1,1.1,1.6,1.5
		c0.7,0.4,1.5,0.6,2.4,0.6c1,0,1.8-0.2,2.4-0.6c0.7-0.4,1.2-0.9,1.6-1.5s0.7-1.3,0.9-2.1c0.2-0.8,0.3-1.6,0.3-2.4
		c0-0.9-0.1-1.7-0.3-2.5c-0.2-0.8-0.5-1.5-0.9-2.1s-1-1.1-1.6-1.5c-0.7-0.4-1.5-0.6-2.4-0.6c-1,0-1.8,0.2-2.4,0.6
		c-0.7,0.4-1.2,0.9-1.6,1.5c-0.4,0.6-0.7,1.3-0.9,2.1c-0.2,0.8-0.3,1.6-0.3,2.5C237.4,39.8,237.5,40.6,237.7,41.3z"/>
	<path class="st6" d="M270.8,48.3c-0.9,0.4-1.9,0.6-3,0.6c-0.9,0-1.7-0.1-2.5-0.4c-0.8-0.3-1.4-0.6-2-1.1c-0.6-0.5-1-1.1-1.3-1.8
		c-0.3-0.7-0.5-1.5-0.5-2.5c0-0.7,0.1-1.3,0.4-1.9s0.6-1.1,1-1.5s0.9-0.9,1.4-1.2c0.5-0.4,1.1-0.7,1.6-0.9c-0.5-0.6-1-1.3-1.3-1.9
		s-0.5-1.4-0.5-2.2c0-0.7,0.1-1.3,0.4-1.8c0.3-0.5,0.7-1,1.1-1.4c0.5-0.4,1-0.7,1.6-0.9c0.6-0.2,1.2-0.3,1.9-0.3
		c0.7,0,1.4,0.1,2.1,0.3c0.6,0.2,1.2,0.5,1.7,0.9c0.5,0.4,0.9,0.9,1.1,1.5c0.3,0.6,0.4,1.2,0.4,2c0,1.1-0.3,2.1-1,2.9
		c-0.7,0.8-1.5,1.4-2.5,2l2.5,3.1c0.2-0.4,0.4-0.7,0.5-1.1c0.1-0.4,0.2-0.8,0.2-1.2h3.3c-0.1,0.9-0.3,1.7-0.6,2.5
		c-0.3,0.8-0.7,1.6-1.3,2.3l3.9,4.6h-4.7l-1.6-1.9C272.5,47.4,271.7,48,270.8,48.3z M267,40.5c-0.3,0.2-0.6,0.4-0.9,0.7
		c-0.3,0.3-0.5,0.6-0.6,0.9s-0.2,0.7-0.2,1.1c0,0.3,0.1,0.7,0.2,1c0.2,0.3,0.4,0.6,0.6,0.8c0.3,0.2,0.5,0.4,0.9,0.5
		c0.3,0.1,0.7,0.2,1,0.2c0.7,0,1.3-0.2,1.8-0.5s1-0.7,1.5-1.2l-3.3-4C267.6,40.1,267.3,40.3,267,40.5z M270.6,32.1
		c-0.4-0.4-0.8-0.5-1.2-0.5c-0.5,0-0.9,0.2-1.2,0.5c-0.3,0.3-0.5,0.7-0.5,1.2c0,0.6,0.2,1.1,0.5,1.6c0.3,0.4,0.7,0.9,1,1.3
		c0.5-0.3,1-0.7,1.4-1.1c0.4-0.4,0.6-0.9,0.6-1.7C271.1,32.9,270.9,32.4,270.6,32.1z"/>
	<path class="st7" d="M298.4,29.2l7.2,19.4h-4.4l-1.5-4.3h-7.2l-1.5,4.3h-4.3l7.3-19.4H298.4z M298.6,41.1l-2.4-7.1h-0.1l-2.5,7.1
		H298.6z"/>
	<path class="st7" d="M310.6,43.8c0.2,0.5,0.5,0.8,0.9,1.1c0.4,0.3,0.8,0.5,1.4,0.6s1.1,0.2,1.6,0.2c0.4,0,0.8,0,1.2-0.1
		c0.4-0.1,0.8-0.2,1.2-0.4c0.4-0.2,0.7-0.4,0.9-0.7c0.3-0.3,0.4-0.7,0.4-1.2c0-0.5-0.2-0.9-0.5-1.3c-0.3-0.3-0.8-0.6-1.3-0.8
		c-0.5-0.2-1.2-0.4-1.8-0.6c-0.7-0.2-1.4-0.3-2.1-0.5c-0.7-0.2-1.4-0.4-2.1-0.7c-0.7-0.3-1.3-0.6-1.8-1c-0.5-0.4-1-0.9-1.3-1.6
		c-0.3-0.6-0.5-1.4-0.5-2.3c0-1,0.2-1.9,0.6-2.6c0.4-0.7,1-1.3,1.7-1.8s1.5-0.9,2.3-1.1c0.9-0.2,1.7-0.4,2.6-0.4c1,0,2,0.1,2.9,0.3
		c0.9,0.2,1.8,0.6,2.5,1.1c0.7,0.5,1.3,1.2,1.7,1.9c0.4,0.8,0.6,1.7,0.6,2.9h-4.1c0-0.6-0.2-1.1-0.4-1.4c-0.2-0.4-0.5-0.7-0.8-0.9
		s-0.7-0.4-1.2-0.5c-0.4-0.1-0.9-0.1-1.5-0.1c-0.3,0-0.7,0-1,0.1s-0.7,0.2-0.9,0.4s-0.5,0.4-0.7,0.7s-0.3,0.6-0.3,1
		c0,0.4,0.1,0.7,0.2,0.9c0.1,0.2,0.4,0.5,0.9,0.7c0.4,0.2,1,0.4,1.8,0.6c0.8,0.2,1.7,0.5,2.9,0.8c0.4,0.1,0.9,0.2,1.5,0.4
		c0.6,0.2,1.3,0.5,1.9,0.9s1.2,1,1.6,1.7c0.5,0.7,0.7,1.6,0.7,2.7c0,0.9-0.2,1.7-0.5,2.5s-0.9,1.4-1.5,2s-1.5,1-2.5,1.3
		c-1,0.3-2.2,0.5-3.5,0.5c-1.1,0-2.1-0.1-3.1-0.4c-1-0.3-1.9-0.7-2.7-1.2c-0.8-0.6-1.4-1.3-1.8-2.1c-0.5-0.9-0.7-1.9-0.7-3.1h4.1
		C310.2,42.8,310.3,43.3,310.6,43.8z"/>
	<path class="st7" d="M324.7,34.9c0.4-1.2,1.1-2.3,1.9-3.2c0.8-0.9,1.8-1.6,3-2.2c1.2-0.5,2.5-0.8,4-0.8c1.5,0,2.8,0.3,4,0.8
		c1.2,0.5,2.2,1.2,3,2.2c0.8,0.9,1.4,2,1.9,3.2c0.4,1.2,0.7,2.6,0.7,4c0,1.4-0.2,2.7-0.7,3.9c-0.4,1.2-1.1,2.3-1.9,3.2
		c-0.8,0.9-1.8,1.6-3,2.1c-1.2,0.5-2.5,0.8-4,0.8c-1.5,0-2.8-0.3-4-0.8c-1.2-0.5-2.2-1.2-3-2.1c-0.8-0.9-1.4-2-1.9-3.2
		c-0.4-1.2-0.7-2.5-0.7-3.9C324.1,37.5,324.3,36.2,324.7,34.9z M328.6,41.3c0.2,0.8,0.5,1.5,0.9,2.1c0.4,0.6,1,1.1,1.6,1.5
		c0.7,0.4,1.5,0.6,2.4,0.6c1,0,1.8-0.2,2.4-0.6c0.7-0.4,1.2-0.9,1.6-1.5s0.7-1.3,0.9-2.1c0.2-0.8,0.3-1.6,0.3-2.4
		c0-0.9-0.1-1.7-0.3-2.5c-0.2-0.8-0.5-1.5-0.9-2.1s-1-1.1-1.6-1.5c-0.7-0.4-1.5-0.6-2.4-0.6c-1,0-1.8,0.2-2.4,0.6
		c-0.7,0.4-1.2,0.9-1.6,1.5c-0.4,0.6-0.7,1.3-0.9,2.1c-0.2,0.8-0.3,1.6-0.3,2.5C328.4,39.8,328.4,40.6,328.6,41.3z"/>
	<path class="st7" d="M358.5,34.3c-0.3-0.4-0.6-0.8-1-1.1s-0.8-0.5-1.3-0.7c-0.5-0.2-1-0.3-1.5-0.3c-1,0-1.8,0.2-2.4,0.6
		c-0.7,0.4-1.2,0.9-1.6,1.5c-0.4,0.6-0.7,1.3-0.9,2.1c-0.2,0.8-0.3,1.6-0.3,2.5c0,0.8,0.1,1.6,0.3,2.4c0.2,0.8,0.5,1.5,0.9,2.1
		c0.4,0.6,1,1.1,1.6,1.5c0.7,0.4,1.5,0.6,2.4,0.6c1.3,0,2.3-0.4,3.1-1.2c0.7-0.8,1.2-1.8,1.3-3.1h4.1c-0.1,1.2-0.4,2.3-0.8,3.3
		c-0.5,1-1,1.8-1.8,2.5c-0.7,0.7-1.6,1.2-2.6,1.6c-1,0.4-2.1,0.5-3.3,0.5c-1.5,0-2.8-0.3-4-0.8c-1.2-0.5-2.2-1.2-3-2.1
		c-0.8-0.9-1.4-2-1.9-3.2c-0.4-1.2-0.7-2.5-0.7-3.9c0-1.4,0.2-2.8,0.7-4c0.4-1.2,1.1-2.3,1.9-3.2c0.8-0.9,1.8-1.6,3-2.2
		c1.2-0.5,2.5-0.8,4-0.8c1.1,0,2.1,0.2,3,0.5c0.9,0.3,1.8,0.8,2.5,1.3c0.8,0.6,1.4,1.3,1.9,2.2c0.5,0.9,0.8,1.9,0.9,3H359
		C358.9,35.2,358.7,34.8,358.5,34.3z"/>
	<path class="st7" d="M370.2,44.4v4.2h-4.3v-4.2H370.2z"/>
</g>
<g>
	<path class="st6" d="M103.2,56.9v1.2h-6.1v3.5h5.7v1.2h-5.7v3.8h6.2v1.2h-7.6v-11H103.2z"/>
	<path class="st6" d="M110.5,58.4c-0.5-0.4-1.1-0.5-1.9-0.5c-0.3,0-0.6,0-0.9,0.1c-0.3,0.1-0.6,0.2-0.8,0.3
		c-0.2,0.1-0.4,0.3-0.6,0.6s-0.2,0.5-0.2,0.9c0,0.3,0.1,0.6,0.3,0.8c0.2,0.2,0.5,0.4,0.8,0.5s0.7,0.2,1.1,0.3
		c0.4,0.1,0.8,0.2,1.3,0.3c0.4,0.1,0.9,0.2,1.3,0.4c0.4,0.1,0.8,0.3,1.1,0.6c0.3,0.2,0.6,0.5,0.8,0.9c0.2,0.4,0.3,0.8,0.3,1.4
		c0,0.6-0.1,1.1-0.4,1.5s-0.6,0.8-1,1s-0.9,0.5-1.4,0.6c-0.5,0.1-1,0.2-1.5,0.2c-0.6,0-1.2-0.1-1.7-0.2c-0.5-0.2-1-0.4-1.4-0.7
		s-0.7-0.7-1-1.2c-0.2-0.5-0.4-1.1-0.4-1.7h1.4c0,0.5,0.1,0.9,0.3,1.2c0.2,0.3,0.4,0.6,0.7,0.8c0.3,0.2,0.6,0.4,1,0.5
		c0.4,0.1,0.8,0.2,1.2,0.2c0.3,0,0.7,0,1-0.1s0.6-0.2,0.9-0.3c0.3-0.1,0.5-0.4,0.6-0.6c0.2-0.3,0.2-0.6,0.2-1c0-0.4-0.1-0.7-0.3-0.9
		c-0.2-0.2-0.5-0.4-0.8-0.6s-0.7-0.3-1.1-0.4c-0.4-0.1-0.8-0.2-1.3-0.3c-0.4-0.1-0.9-0.2-1.3-0.3c-0.4-0.1-0.8-0.3-1.1-0.5
		s-0.6-0.5-0.8-0.8c-0.2-0.3-0.3-0.8-0.3-1.3c0-0.6,0.1-1,0.3-1.4c0.2-0.4,0.5-0.7,0.9-1s0.8-0.5,1.3-0.6c0.5-0.1,1-0.2,1.5-0.2
		c0.6,0,1.1,0.1,1.6,0.2c0.5,0.1,0.9,0.3,1.3,0.6c0.4,0.3,0.7,0.6,0.9,1.1s0.3,1,0.3,1.6h-1.4C111.3,59.4,111,58.8,110.5,58.4z"/>
	<path class="st6" d="M121.6,58.5c-0.6-0.4-1.2-0.6-2-0.6c-0.7,0-1.2,0.1-1.7,0.4c-0.5,0.2-0.9,0.6-1.2,1c-0.3,0.4-0.5,0.9-0.7,1.4
		c-0.1,0.5-0.2,1.1-0.2,1.7c0,0.6,0.1,1.2,0.2,1.8s0.4,1,0.7,1.5c0.3,0.4,0.7,0.7,1.2,1s1,0.4,1.7,0.4c0.5,0,0.9-0.1,1.3-0.2
		c0.4-0.2,0.7-0.4,1-0.7s0.5-0.6,0.6-1c0.2-0.4,0.2-0.8,0.3-1.3h1.5c-0.1,1.4-0.6,2.5-1.4,3.2c-0.8,0.8-1.9,1.2-3.3,1.2
		c-0.9,0-1.6-0.1-2.2-0.4c-0.6-0.3-1.2-0.7-1.6-1.2c-0.4-0.5-0.7-1.1-0.9-1.8c-0.2-0.7-0.3-1.4-0.3-2.2s0.1-1.6,0.3-2.3
		c0.2-0.7,0.6-1.3,1-1.8c0.4-0.5,1-0.9,1.6-1.2c0.7-0.3,1.4-0.5,2.2-0.5c0.6,0,1.1,0.1,1.6,0.2c0.5,0.2,1,0.4,1.4,0.7
		c0.4,0.3,0.7,0.7,1,1.1s0.4,1,0.5,1.5h-1.5C122.5,59.5,122.2,58.9,121.6,58.5z"/>
	<path class="st6" d="M131.2,56.9c1,0,1.9,0.3,2.5,0.8c0.6,0.5,0.9,1.2,0.9,2.1c0,0.7-0.2,1.3-0.5,1.8c-0.3,0.5-0.8,0.8-1.5,1v0
		c0.3,0.1,0.6,0.2,0.8,0.3c0.2,0.1,0.4,0.3,0.5,0.5c0.1,0.2,0.2,0.4,0.3,0.7c0.1,0.2,0.1,0.5,0.1,0.8c0,0.3,0,0.5,0,0.8
		c0,0.3,0,0.5,0.1,0.8s0.1,0.5,0.2,0.8c0.1,0.2,0.2,0.5,0.3,0.6h-1.6c-0.1-0.1-0.2-0.3-0.2-0.5c0-0.2-0.1-0.4-0.1-0.7
		c0-0.2,0-0.5,0-0.8c0-0.3,0-0.5-0.1-0.8c0-0.3-0.1-0.5-0.2-0.8c-0.1-0.2-0.2-0.5-0.3-0.6c-0.1-0.2-0.3-0.3-0.5-0.4
		c-0.2-0.1-0.5-0.2-0.9-0.2h-3.6v4.7h-1.5v-11H131.2z M131.6,61.9c0.3-0.1,0.6-0.2,0.8-0.3c0.2-0.1,0.4-0.3,0.6-0.6
		c0.1-0.3,0.2-0.6,0.2-1c0-0.6-0.2-1-0.5-1.4c-0.3-0.3-0.8-0.5-1.5-0.5h-3.6V62h3C130.9,62,131.2,62,131.6,61.9z"/>
	<path class="st6" d="M138.1,56.9v11h-1.5v-11H138.1z"/>
	<path class="st6" d="M139.4,58.2v-1.2h8.8v1.2h-3.7v9.7h-1.5v-9.7H139.4z"/>
	<path class="st6" d="M149.1,60.3c0.2-0.7,0.6-1.3,1-1.8c0.4-0.5,1-1,1.6-1.3c0.7-0.3,1.4-0.5,2.3-0.5s1.6,0.2,2.3,0.5
		c0.7,0.3,1.2,0.7,1.6,1.3c0.4,0.5,0.8,1.1,1,1.8c0.2,0.7,0.3,1.4,0.3,2.2s-0.1,1.5-0.3,2.2c-0.2,0.7-0.6,1.3-1,1.8
		c-0.4,0.5-1,1-1.6,1.3c-0.7,0.3-1.4,0.5-2.3,0.5s-1.6-0.2-2.3-0.5c-0.7-0.3-1.2-0.7-1.6-1.3c-0.4-0.5-0.8-1.1-1-1.8
		c-0.2-0.7-0.3-1.4-0.3-2.2S148.9,61,149.1,60.3z M150.5,64.1c0.1,0.5,0.4,1,0.7,1.5c0.3,0.4,0.7,0.8,1.2,1c0.5,0.3,1.1,0.4,1.7,0.4
		s1.2-0.1,1.7-0.4c0.5-0.3,0.9-0.6,1.2-1c0.3-0.4,0.5-0.9,0.7-1.5s0.2-1.1,0.2-1.6s-0.1-1.1-0.2-1.6s-0.4-1-0.7-1.5
		c-0.3-0.4-0.7-0.8-1.2-1c-0.5-0.3-1.1-0.4-1.7-0.4s-1.2,0.1-1.7,0.4c-0.5,0.3-0.9,0.6-1.2,1c-0.3,0.4-0.5,0.9-0.7,1.5
		s-0.2,1.1-0.2,1.6S150.3,63.5,150.5,64.1z"/>
	<path class="st6" d="M166.3,56.9c1,0,1.9,0.3,2.5,0.8c0.6,0.5,0.9,1.2,0.9,2.1c0,0.7-0.2,1.3-0.5,1.8c-0.3,0.5-0.8,0.8-1.5,1v0
		c0.3,0.1,0.6,0.2,0.8,0.3c0.2,0.1,0.4,0.3,0.5,0.5c0.1,0.2,0.2,0.4,0.3,0.7c0.1,0.2,0.1,0.5,0.1,0.8c0,0.3,0,0.5,0,0.8
		c0,0.3,0,0.5,0.1,0.8s0.1,0.5,0.2,0.8c0.1,0.2,0.2,0.5,0.3,0.6h-1.6c-0.1-0.1-0.2-0.3-0.2-0.5c0-0.2-0.1-0.4-0.1-0.7
		c0-0.2,0-0.5,0-0.8c0-0.3,0-0.5-0.1-0.8c0-0.3-0.1-0.5-0.2-0.8c-0.1-0.2-0.2-0.5-0.3-0.6c-0.1-0.2-0.3-0.3-0.5-0.4
		c-0.2-0.1-0.5-0.2-0.9-0.2h-3.6v4.7h-1.5v-11H166.3z M166.6,61.9c0.3-0.1,0.6-0.2,0.8-0.3c0.2-0.1,0.4-0.3,0.6-0.6
		c0.1-0.3,0.2-0.6,0.2-1c0-0.6-0.2-1-0.5-1.4c-0.3-0.3-0.8-0.5-1.5-0.5h-3.6V62h3C165.9,62,166.3,62,166.6,61.9z"/>
	<path class="st6" d="M173.2,56.9v11h-1.5v-11H173.2z"/>
	<path class="st6" d="M175.3,60.3c0.2-0.7,0.6-1.3,1-1.8c0.4-0.5,1-1,1.6-1.3c0.7-0.3,1.4-0.5,2.3-0.5s1.6,0.2,2.3,0.5
		c0.7,0.3,1.2,0.7,1.6,1.3c0.4,0.5,0.8,1.1,1,1.8c0.2,0.7,0.3,1.4,0.3,2.2s-0.1,1.5-0.3,2.2c-0.2,0.7-0.6,1.3-1,1.8
		c-0.4,0.5-1,1-1.6,1.3c-0.7,0.3-1.4,0.5-2.3,0.5s-1.6-0.2-2.3-0.5c-0.7-0.3-1.2-0.7-1.6-1.3c-0.4-0.5-0.8-1.1-1-1.8
		c-0.2-0.7-0.3-1.4-0.3-2.2S175.1,61,175.3,60.3z M176.7,64.1c0.1,0.5,0.4,1,0.7,1.5c0.3,0.4,0.7,0.8,1.2,1c0.5,0.3,1.1,0.4,1.7,0.4
		s1.2-0.1,1.7-0.4c0.5-0.3,0.9-0.6,1.2-1c0.3-0.4,0.5-0.9,0.7-1.5s0.2-1.1,0.2-1.6s-0.1-1.1-0.2-1.6s-0.4-1-0.7-1.5
		c-0.3-0.4-0.7-0.8-1.2-1c-0.5-0.3-1.1-0.4-1.7-0.4s-1.2,0.1-1.7,0.4c-0.5,0.3-0.9,0.6-1.2,1c-0.3,0.4-0.5,0.9-0.7,1.5
		s-0.2,1.1-0.2,1.6S176.5,63.5,176.7,64.1z"/>
	<path class="st6" d="M195.3,56.9c1.7,0,3,0.4,3.9,1.3s1.4,2.2,1.4,3.9c0,0.9-0.1,1.7-0.3,2.5s-0.5,1.3-1,1.8
		c-0.4,0.5-1,0.9-1.6,1.1s-1.5,0.4-2.4,0.4h-3.8v-11H195.3z M195.5,66.7c0.2,0,0.4,0,0.6,0c0.2,0,0.5-0.1,0.8-0.2
		c0.3-0.1,0.6-0.2,0.8-0.4s0.5-0.4,0.7-0.8c0.2-0.3,0.4-0.7,0.5-1.2c0.1-0.5,0.2-1.1,0.2-1.7c0-0.7-0.1-1.2-0.2-1.8s-0.3-1-0.6-1.3
		c-0.3-0.4-0.7-0.6-1.1-0.8c-0.5-0.2-1-0.3-1.7-0.3H193v8.5H195.5z"/>
	<path class="st6" d="M210,56.9v1.2h-6.1v3.5h5.7v1.2h-5.7v3.8h6.2v1.2h-7.6v-11H210z"/>
	<path class="st6" d="M220.7,56.9l4.3,11h-1.6l-1.2-3.3h-4.6l-1.2,3.3h-1.5l4.3-11H220.7z M221.7,63.4l-1.8-5.1h0l-1.9,5.1H221.7z"
		/>
	<path class="st6" d="M230,56.9c0.2,0,0.5,0,0.8,0s0.5,0,0.8,0c0.3,0,0.5,0.1,0.7,0.1c0.2,0.1,0.4,0.1,0.6,0.2
		c0.4,0.2,0.7,0.5,0.9,0.9s0.4,0.8,0.4,1.4c0,0.6-0.1,1.1-0.4,1.5c-0.3,0.4-0.7,0.7-1.2,0.9v0c0.7,0.1,1.2,0.5,1.6,0.9
		c0.4,0.5,0.5,1,0.5,1.7c0,0.4-0.1,0.8-0.2,1.2c-0.1,0.4-0.4,0.7-0.6,1c-0.3,0.3-0.6,0.5-1,0.7c-0.4,0.2-0.9,0.3-1.4,0.3H226v-11
		H230z M230.4,61.7c0.8,0,1.4-0.1,1.8-0.4c0.4-0.3,0.5-0.7,0.5-1.3c0-0.4-0.1-0.7-0.2-0.9c-0.1-0.2-0.3-0.4-0.5-0.5
		c-0.2-0.1-0.5-0.2-0.7-0.2c-0.3,0-0.6-0.1-0.9-0.1h-2.9v3.5H230.4z M231.1,66.7c0.6,0,1.2-0.2,1.5-0.5c0.4-0.3,0.5-0.8,0.5-1.4
		c0-0.4-0.1-0.7-0.2-0.9c-0.1-0.2-0.3-0.4-0.5-0.6c-0.2-0.1-0.5-0.2-0.8-0.3c-0.3-0.1-0.6-0.1-0.9-0.1h-3.3v3.8H231.1z"/>
	<path class="st6" d="M236.3,60.3c0.2-0.7,0.6-1.3,1-1.8c0.4-0.5,1-1,1.6-1.3c0.7-0.3,1.4-0.5,2.3-0.5s1.6,0.2,2.3,0.5
		c0.7,0.3,1.2,0.7,1.6,1.3c0.4,0.5,0.8,1.1,1,1.8c0.2,0.7,0.3,1.4,0.3,2.2s-0.1,1.5-0.3,2.2c-0.2,0.7-0.6,1.3-1,1.8
		c-0.4,0.5-1,1-1.6,1.3c-0.7,0.3-1.4,0.5-2.3,0.5s-1.6-0.2-2.3-0.5c-0.7-0.3-1.2-0.7-1.6-1.3c-0.4-0.5-0.8-1.1-1-1.8
		c-0.2-0.7-0.3-1.4-0.3-2.2S236.1,61,236.3,60.3z M237.6,64.1c0.1,0.5,0.4,1,0.7,1.5c0.3,0.4,0.7,0.8,1.2,1c0.5,0.3,1.1,0.4,1.7,0.4
		s1.2-0.1,1.7-0.4c0.5-0.3,0.9-0.6,1.2-1c0.3-0.4,0.5-0.9,0.7-1.5s0.2-1.1,0.2-1.6s-0.1-1.1-0.2-1.6s-0.4-1-0.7-1.5
		c-0.3-0.4-0.7-0.8-1.2-1c-0.5-0.3-1.1-0.4-1.7-0.4s-1.2,0.1-1.7,0.4c-0.5,0.3-0.9,0.6-1.2,1c-0.3,0.4-0.5,0.9-0.7,1.5
		s-0.2,1.1-0.2,1.6S237.5,63.5,237.6,64.1z"/>
	<path class="st6" d="M254.8,67.8c-0.6,0.3-1.3,0.4-1.9,0.4c-0.8,0-1.6-0.2-2.2-0.5s-1.2-0.7-1.6-1.2c-0.5-0.5-0.8-1.1-1-1.8
		c-0.2-0.7-0.4-1.4-0.4-2.1c0-0.8,0.1-1.6,0.3-2.3c0.2-0.7,0.5-1.4,1-1.9c0.4-0.5,1-1,1.6-1.3c0.7-0.3,1.4-0.5,2.3-0.5
		c0.6,0,1.2,0.1,1.7,0.2c0.5,0.1,1,0.4,1.4,0.7c0.4,0.3,0.8,0.7,1,1.1c0.3,0.5,0.5,1,0.6,1.7h-1.5c-0.1-0.4-0.2-0.8-0.4-1.1
		c-0.2-0.3-0.4-0.6-0.7-0.7c-0.3-0.2-0.6-0.3-1-0.4c-0.4-0.1-0.8-0.1-1.2-0.1c-0.7,0-1.2,0.1-1.7,0.4c-0.5,0.3-0.9,0.6-1.2,1.1
		c-0.3,0.4-0.5,0.9-0.7,1.5s-0.2,1.1-0.2,1.7c0,0.6,0.1,1.1,0.2,1.7s0.4,1,0.7,1.4s0.7,0.7,1.2,1c0.5,0.2,1,0.4,1.6,0.4
		c0.6,0,1.1-0.1,1.5-0.3c0.4-0.2,0.8-0.4,1.1-0.8s0.5-0.7,0.7-1.1c0.2-0.4,0.2-0.9,0.2-1.4h-3.5v-1.2h4.8v5.8h-0.9l-0.4-1.4
		C256,67.1,255.5,67.5,254.8,67.8z"/>
	<path class="st6" d="M264.5,56.9l4.3,11h-1.6l-1.2-3.3h-4.6l-1.2,3.3h-1.5l4.3-11H264.5z M265.5,63.4l-1.8-5.1h0l-1.9,5.1H265.5z"
		/>
	<path class="st6" d="M273.6,56.9c1.7,0,3,0.4,3.9,1.3s1.4,2.2,1.4,3.9c0,0.9-0.1,1.7-0.3,2.5s-0.5,1.3-1,1.8
		c-0.4,0.5-1,0.9-1.6,1.1s-1.5,0.4-2.4,0.4h-3.8v-11H273.6z M273.8,66.7c0.2,0,0.4,0,0.6,0c0.2,0,0.5-0.1,0.8-0.2
		c0.3-0.1,0.6-0.2,0.8-0.4s0.5-0.4,0.7-0.8c0.2-0.3,0.4-0.7,0.5-1.2c0.1-0.5,0.2-1.1,0.2-1.7c0-0.7-0.1-1.2-0.2-1.8s-0.3-1-0.6-1.3
		c-0.3-0.4-0.7-0.6-1.1-0.8c-0.5-0.2-1-0.3-1.7-0.3h-2.5v8.5H273.8z"/>
	<path class="st6" d="M280.4,60.3c0.2-0.7,0.6-1.3,1-1.8c0.4-0.5,1-1,1.6-1.3c0.7-0.3,1.4-0.5,2.3-0.5s1.6,0.2,2.3,0.5
		c0.7,0.3,1.2,0.7,1.6,1.3c0.4,0.5,0.8,1.1,1,1.8c0.2,0.7,0.3,1.4,0.3,2.2s-0.1,1.5-0.3,2.2c-0.2,0.7-0.6,1.3-1,1.8
		c-0.4,0.5-1,1-1.6,1.3c-0.7,0.3-1.4,0.5-2.3,0.5s-1.6-0.2-2.3-0.5c-0.7-0.3-1.2-0.7-1.6-1.3c-0.4-0.5-0.8-1.1-1-1.8
		c-0.2-0.7-0.3-1.4-0.3-2.2S280.2,61,280.4,60.3z M281.8,64.1c0.1,0.5,0.4,1,0.7,1.5c0.3,0.4,0.7,0.8,1.2,1c0.5,0.3,1.1,0.4,1.7,0.4
		s1.2-0.1,1.7-0.4c0.5-0.3,0.9-0.6,1.2-1c0.3-0.4,0.5-0.9,0.7-1.5s0.2-1.1,0.2-1.6s-0.1-1.1-0.2-1.6s-0.4-1-0.7-1.5
		c-0.3-0.4-0.7-0.8-1.2-1c-0.5-0.3-1.1-0.4-1.7-0.4s-1.2,0.1-1.7,0.4c-0.5,0.3-0.9,0.6-1.2,1c-0.3,0.4-0.5,0.9-0.7,1.5
		s-0.2,1.1-0.2,1.6S281.6,63.5,281.8,64.1z"/>
	<path class="st6" d="M297.9,58.4c-0.5-0.4-1.1-0.5-1.9-0.5c-0.3,0-0.6,0-0.9,0.1c-0.3,0.1-0.6,0.2-0.8,0.3
		c-0.2,0.1-0.4,0.3-0.6,0.6s-0.2,0.5-0.2,0.9c0,0.3,0.1,0.6,0.3,0.8c0.2,0.2,0.5,0.4,0.8,0.5s0.7,0.2,1.1,0.3
		c0.4,0.1,0.8,0.2,1.3,0.3c0.4,0.1,0.9,0.2,1.3,0.4c0.4,0.1,0.8,0.3,1.1,0.6c0.3,0.2,0.6,0.5,0.8,0.9c0.2,0.4,0.3,0.8,0.3,1.4
		c0,0.6-0.1,1.1-0.4,1.5s-0.6,0.8-1,1s-0.9,0.5-1.4,0.6c-0.5,0.1-1,0.2-1.5,0.2c-0.6,0-1.2-0.1-1.7-0.2c-0.5-0.2-1-0.4-1.4-0.7
		s-0.7-0.7-1-1.2c-0.2-0.5-0.4-1.1-0.4-1.7h1.4c0,0.5,0.1,0.9,0.3,1.2c0.2,0.3,0.4,0.6,0.7,0.8c0.3,0.2,0.6,0.4,1,0.5
		c0.4,0.1,0.8,0.2,1.2,0.2c0.3,0,0.7,0,1-0.1s0.6-0.2,0.9-0.3c0.3-0.1,0.5-0.4,0.6-0.6c0.2-0.3,0.2-0.6,0.2-1c0-0.4-0.1-0.7-0.3-0.9
		c-0.2-0.2-0.5-0.4-0.8-0.6s-0.7-0.3-1.1-0.4c-0.4-0.1-0.8-0.2-1.3-0.3c-0.4-0.1-0.9-0.2-1.3-0.3c-0.4-0.1-0.8-0.3-1.1-0.5
		s-0.6-0.5-0.8-0.8c-0.2-0.3-0.3-0.8-0.3-1.3c0-0.6,0.1-1,0.3-1.4c0.2-0.4,0.5-0.7,0.9-1s0.8-0.5,1.3-0.6c0.5-0.1,1-0.2,1.5-0.2
		c0.6,0,1.1,0.1,1.6,0.2c0.5,0.1,0.9,0.3,1.3,0.6c0.4,0.3,0.7,0.6,0.9,1.1s0.3,1,0.3,1.6h-1.4C298.6,59.4,298.4,58.8,297.9,58.4z"/>
</g>
</svg>
